<?xml version="1.0" encoding="UTF-8" standalone="no"?>
<svg
   xmlns:dc="http://purl.org/dc/elements/1.1/"
   xmlns:cc="http://creativecommons.org/ns#"
   xmlns:rdf="http://www.w3.org/1999/02/22-rdf-syntax-ns#"
   xmlns:svg="http://www.w3.org/2000/svg"
   xmlns="http://www.w3.org/2000/svg"
   xmlns:xlink="http://www.w3.org/1999/xlink"
   xmlns:sodipodi="http://sodipodi.sourceforge.net/DTD/sodipodi-0.dtd"
   xmlns:inkscape="http://www.inkscape.org/namespaces/inkscape"
   sodipodi:docname="frog.svg"
   inkscape:version="1.0 (4035a4f, 2020-05-01)"
   id="svg4075"
   version="1.1"
   viewBox="0 0 15.458011 13.396901"
   height="13.396901mm"
   width="15.458011mm">
  <defs
     id="defs4069">
    <marker
       inkscape:isstock="true"
       style="overflow:visible"
       id="DotS-3"
       refX="0"
       refY="0"
       orient="auto"
       inkscape:stockid="DotS">
      <path
         transform="matrix(0.2,0,0,0.2,1.48,0.2)"
         style="fill:#255b0e;fill-opacity:1;fill-rule:evenodd;stroke:#255b0e;stroke-width:1pt;stroke-opacity:1"
         d="m -2.5,-1 c 0,2.76 -2.24,5 -5,5 -2.76,0 -5,-2.24 -5,-5 0,-2.76 2.24,-5 5,-5 2.76,0 5,2.24 5,5 z"
         id="path981-6" />
    </marker>
    <marker
       inkscape:isstock="true"
       style="overflow:visible"
       id="marker4049"
       refX="0"
       refY="0"
       orient="auto"
       inkscape:stockid="DotS">
      <path
         transform="matrix(0.2,0,0,0.2,1.48,0.2)"
         style="fill:#255b0e;fill-opacity:1;fill-rule:evenodd;stroke:#255b0e;stroke-width:1pt;stroke-opacity:1"
         d="m -2.5,-1 c 0,2.76 -2.24,5 -5,5 -2.76,0 -5,-2.24 -5,-5 0,-2.76 2.24,-5 5,-5 2.76,0 5,2.24 5,5 z"
         id="path4047" />
    </marker>
    <marker
       inkscape:isstock="true"
       style="overflow:visible"
       id="marker4053"
       refX="0"
       refY="0"
       orient="auto"
       inkscape:stockid="DotS">
      <path
         transform="matrix(0.2,0,0,0.2,1.48,0.2)"
         style="fill:#255b0e;fill-opacity:1;fill-rule:evenodd;stroke:#255b0e;stroke-width:1pt;stroke-opacity:1"
         d="m -2.5,-1 c 0,2.76 -2.24,5 -5,5 -2.76,0 -5,-2.24 -5,-5 0,-2.76 2.24,-5 5,-5 2.76,0 5,2.24 5,5 z"
         id="path4051" />
    </marker>
  </defs>
  <sodipodi:namedview
     inkscape:window-maximized="1"
     inkscape:window-y="0"
     inkscape:window-x="0"
     inkscape:window-height="1058"
     inkscape:window-width="1920"
     fit-margin-bottom="0"
     fit-margin-right="0"
     fit-margin-left="0"
     fit-margin-top="0"
     showgrid="false"
     inkscape:document-rotation="0"
     inkscape:current-layer="layer1"
     inkscape:document-units="mm"
     inkscape:cy="60.693304"
     inkscape:cx="20.297411"
     inkscape:zoom="5.6"
     inkscape:pageshadow="2"
     inkscape:pageopacity="0.0"
     borderopacity="1.0"
     bordercolor="#666666"
     pagecolor="#ffffff"
     id="base" />
  <metadata
     id="metadata4072">
    <rdf:RDF>
      <cc:Work
         rdf:about="">
        <dc:format>image/svg+xml</dc:format>
        <dc:type
           rdf:resource="http://purl.org/dc/dcmitype/StillImage" />
        <dc:title></dc:title>
      </cc:Work>
    </rdf:RDF>
  </metadata>
  <g
     transform="translate(-157.41051,-51.238928)"
     id="layer1"
     inkscape:groupmode="layer"
     inkscape:label="Layer 1">
    <g
       id="g1346"
       transform="translate(51.773968,-65.871141)"
       inkscape:export-xdpi="96"
       inkscape:export-ydpi="96">
      <g
         id="g1364">
        <path
           id="path908"
           style="opacity:1;fill:#46b921;fill-opacity:1;stroke:#255b0e;stroke-width:0.264999;stroke-miterlimit:4;stroke-dasharray:none;stroke-opacity:1;paint-order:fill markers stroke"
           d="m 113.41921,118.44342 c -3.29465,3e-5 -5.96549,2.67087 -5.96552,5.96552 -0.98562,0.7321 -1.63299,1.42786 -1.68465,2.55023 1.5e-4,0.75321 1.07006,1.80471 3.31709,2.19788 1.37854,0.58704 2.83969,1.21734 4.33308,1.21742"
           sodipodi:nodetypes="ccccc" />
        <use
           x="0"
           y="0"
           xlink:href="#path908"
           id="use1360"
           transform="matrix(-1,0,0,1,226.73109,0)"
           width="100%"
           height="100%" />
      </g>
      <g
         transform="matrix(1.2788394,0,0,0.99513449,-30.864925,0.58598245)"
         id="g356">
        <ellipse
           style="opacity:1;fill:#46b921;fill-opacity:1;stroke:#255b0e;stroke-width:0.265;stroke-miterlimit:4;stroke-dasharray:none;stroke-opacity:1;paint-order:fill markers stroke"
           id="path910"
           cx="110.6907"
           cy="120.43595"
           rx="1.4619845"
           ry="3.2096441" />
        <ellipse
           ry="2.0972173"
           rx="1.1079851"
           cy="121.58763"
           cx="110.6907"
           id="ellipse349"
           style="opacity:1;fill:#ffffff;fill-opacity:1;stroke:#255b0e;stroke-width:0.186481;stroke-miterlimit:4;stroke-dasharray:none;stroke-opacity:1;paint-order:fill markers stroke" />
        <ellipse
           style="opacity:1;fill:#000000;fill-opacity:1;stroke:none;stroke-width:0.101656;stroke-miterlimit:4;stroke-dasharray:none;stroke-opacity:1;paint-order:fill markers stroke"
           id="ellipse351"
           cx="110.6907"
           cy="121.90115"
           rx="0.5324198"
           ry="1.2969327" />
      </g>
      <use
         height="100%"
         width="100%"
         id="use358"
         xlink:href="#g356"
         y="0"
         x="0"
         transform="translate(5.2916667)" />
      <g
         transform="translate(0.825015)"
         id="g1238">
        <path
           style="fill:none;stroke:#255b0e;stroke-width:0.265;stroke-linecap:round;stroke-linejoin:round;stroke-miterlimit:3.7;stroke-dasharray:none;stroke-opacity:1;marker-start:url(#DotS-3)"
           d="m 107.36754,126.5798 c -0.10887,-0.0676 -1.28231,0.38279 -0.12557,0.86943 1.15674,0.48663 4.57206,1.10935 5.28154,0.28825"
           id="path89"
           sodipodi:nodetypes="czc" />
        <use
           x="0"
           y="0"
           xlink:href="#path89"
           id="use1228"
           transform="matrix(-1,0,0,1,225.08106,0)"
           width="100%"
           height="100%" />
      </g>
      <ellipse
         style="fill:#255b0e;fill-opacity:1;stroke:none;stroke-width:0.264999;stroke-linecap:round;stroke-linejoin:round;stroke-miterlimit:3.7;stroke-dasharray:none;stroke-opacity:1;paint-order:fill markers stroke"
         id="path1295"
         cx="46.21249"
         cy="161.91592"
         rx="0.66142917"
         ry="0.33804047"
         transform="rotate(-25.847532)" />
      <use
         x="0"
         y="0"
         xlink:href="#path1295"
         id="use1297"
         transform="matrix(-1,0,0,1,226.67307,0)"
         width="100%"
         height="100%" />
    </g>
  </g>
</svg>
